<svg xmlns="http://www.w3.org/2000/svg" width="17.13" height="22.683" viewBox="0 0 17.13 22.683">
  <g id="fire" transform="translate(0.25 0.259)">
    <g id="Group_1991" data-name="Group 1991" transform="translate(0 0)">
      <path id="Path_2132" data-name="Path 2132" d="M80.607,13.2l-.016-.217A13.069,13.069,0,0,0,77.44,5.774C76.182,4.081,75.1,2.619,75.1.462a.463.463,0,0,0-.251-.411.458.458,0,0,0-.48.035,11.749,11.749,0,0,0-4.337,6.268,20.46,20.46,0,0,0-.475,4.685c-1.884-.4-2.311-3.221-2.315-3.251a.462.462,0,0,0-.659-.351c-.1.048-2.425,1.23-2.56,5.949-.009.157-.01.314-.01.471a8.315,8.315,0,1,0,16.63,0C80.639,13.628,80.623,13.414,80.607,13.2Zm-8.283,8.05A2.87,2.87,0,0,1,69.552,18.3c0-.055,0-.111,0-.18a3.745,3.745,0,0,1,.292-1.467,1.687,1.687,0,0,0,1.525,1.1.462.462,0,0,0,.462-.462,9.242,9.242,0,0,1,.177-2.1,4.465,4.465,0,0,1,.935-1.771,5.953,5.953,0,0,0,.952,1.747,5.264,5.264,0,0,1,1.184,2.884c.006.079.012.159.012.245A2.87,2.87,0,0,1,72.324,21.249Zm2.919-.6A3.959,3.959,0,0,0,76.02,18.3c0-.109-.007-.21-.02-.4a6.048,6.048,0,0,0-1.344-3.262,3.667,3.667,0,0,1-.918-2.163A.462.462,0,0,0,73,12.1a5.4,5.4,0,0,0-1.883,2.872,8.457,8.457,0,0,0-.194,1.639,2.194,2.194,0,0,1-.42-.992.463.463,0,0,0-.669-.349c-.116.06-1.139.646-1.2,2.8,0,.073,0,.146,0,.219a3.959,3.959,0,0,0,.776,2.349,7.4,7.4,0,0,1-4.472-6.788c0-.138,0-.277.009-.43.079-2.769.965-4.142,1.544-4.748.4,1.444,1.46,3.331,3.529,3.331a.462.462,0,0,0,.462-.462,20.624,20.624,0,0,1,.448-4.968A10.962,10.962,0,0,1,74.23,1.371,10.54,10.54,0,0,0,76.7,6.325c1.347,1.813,2.739,3.687,2.972,6.722l.016.221c.014.192.029.384.029.59A7.4,7.4,0,0,1,75.243,20.646Z" transform="translate(-64.009 0.001)" fill="#e32340" stroke="#e32340" stroke-width="0.5"/>
    </g>
  </g>
</svg>
