<svg xmlns="http://www.w3.org/2000/svg" width="23.75" height="23.561" viewBox="0 0 23.75 23.561">
  <g id="shopping-bag-outline" transform="translate(0 -0.95)">
    <g id="Group_2074" data-name="Group 2074" transform="translate(0 0.95)">
      <path id="Path_2219" data-name="Path 2219" d="M2,6.918l-2,16.8a.713.713,0,0,0,.708.8H23.036a.713.713,0,0,0,.708-.8l-2-16.8a.713.713,0,0,0-.708-.629h-3.2a6.048,6.048,0,0,0-12.013,0H2.713A.713.713,0,0,0,2,6.918Zm9.83-4.542A4.63,4.63,0,0,1,16.4,6.289H7.268A4.63,4.63,0,0,1,11.834,2.376ZM6.494,7.715H20.4l1.829,15.369H1.515L3.345,7.715Z" transform="translate(0 -0.95)" fill="#fff"/>
    </g>
  </g>
</svg>
