<svg xmlns="http://www.w3.org/2000/svg" width="41.232" height="41.232" viewBox="0 0 41.232 41.232">
  <path id="Exclusion_4" data-name="Exclusion 4" d="M20.615,41.232A20.616,20.616,0,0,1,6.038,6.038,20.616,20.616,0,1,1,35.193,35.193,20.481,20.481,0,0,1,20.615,41.232Zm4.7-24.521a3.637,3.637,0,0,0-2.955,1.274,5.588,5.588,0,0,0-1.053,3.636,5.593,5.593,0,0,0,1.08,3.6,3.578,3.578,0,0,0,2.928,1.337,3.714,3.714,0,0,0,3.023-1.294,5.6,5.6,0,0,0,1.069-3.647A5.442,5.442,0,0,0,28.3,18.032,3.711,3.711,0,0,0,25.313,16.711ZM22.1,10.685,13.389,26.39h3.19l8.712-15.705H22.1Zm-8.734-.225a3.633,3.633,0,0,0-2.954,1.273,5.588,5.588,0,0,0-1.053,3.636,5.621,5.621,0,0,0,1.079,3.615,3.58,3.58,0,0,0,2.928,1.337A3.716,3.716,0,0,0,16.4,19.027a5.642,5.642,0,0,0,1.063-3.659,5.437,5.437,0,0,0-1.106-3.587A3.709,3.709,0,0,0,13.368,10.46ZM25.356,23.995c-.271,0-.477-.184-.612-.548a5.606,5.606,0,0,1-.2-1.783,5.768,5.768,0,0,1,.2-1.773c.132-.37.34-.558.617-.558.307,0,.522.211.639.628a6.517,6.517,0,0,1,.177,1.7,6.527,6.527,0,0,1-.177,1.7C25.877,23.784,25.662,23.995,25.356,23.995ZM13.411,17.743c-.271,0-.477-.184-.613-.548a5.608,5.608,0,0,1-.2-1.783,5.766,5.766,0,0,1,.2-1.772c.133-.371.341-.559.618-.559s.475.184.607.548a5.75,5.75,0,0,1,.2,1.783,5.728,5.728,0,0,1-.2,1.794C13.886,17.562,13.682,17.743,13.411,17.743Z" transform="translate(0 0)" fill="#8a8a8a"/>
</svg>
