<svg xmlns="http://www.w3.org/2000/svg" width="41.479" height="40.984" viewBox="0 0 41.479 40.984">
  <path id="Subtraction_32" data-name="Subtraction 32" d="M16.213,40.984h0A20.72,20.72,0,0,1,0,20.74,20.74,20.74,0,0,1,35.4,6.075a20.746,20.746,0,0,1-9.649,34.794V26.422a6.411,6.411,0,0,0,1.292,1.21,11.1,11.1,0,0,1,2.422,3.431c.393,1.942,1,2.926,1.811,2.926a1.669,1.669,0,0,0,.208-.016l.039,0a1.929,1.929,0,0,0,1.468-.56,1.7,1.7,0,0,0,.388-1.176c0-.013.418-1.334-2.422-5.811-2.508-3.957-8.017-5.34-11.663-6.255-.509-.128-.99-.249-1.414-.364-3.351-.918-6.267-6.043-6.3-6.095a2.72,2.72,0,0,0-.606-.565.984.984,0,0,0-.566-.187.7.7,0,0,0-.2.026H10.2a2.051,2.051,0,0,0-1.472.727c-.695.775.052,2.281.807,3.632A20.71,20.71,0,0,0,12.8,21.054a5.943,5.943,0,0,1,2.936,3.487,6.514,6.514,0,0,1,.333,2.124l.144,14.318ZM20.993,10.4a4.439,4.439,0,1,0,4.439,4.439A4.444,4.444,0,0,0,20.993,10.4Z" transform="translate(0 0)" fill="#d31b37"/>
</svg>
