<svg xmlns="http://www.w3.org/2000/svg" width="26.018" height="26" viewBox="0 0 26.018 26">
  <g id="shopping-cart" transform="translate(0 -0.178)">
    <g id="Group_2061" data-name="Group 2061" transform="translate(0 0.178)">
      <path id="Path_2216" data-name="Path 2216" d="M21.281,17.182a4.647,4.647,0,0,0,1.657-2.349l3.08-9.119H6.217L6,3.291A3.413,3.413,0,0,0,2.6.178H0V2.209H2.6A1.374,1.374,0,0,1,3.975,3.471L5.565,21.1v.009a3.4,3.4,0,0,0,2.816,3.025,3,3,0,0,0,5.66.066h2.386a3,3,0,1,0,0-2.031H14.041a3,3,0,0,0-5.593-.115,1.376,1.376,0,0,1-.861-1.143L7.334,18.1h11.2A4.541,4.541,0,0,0,21.281,17.182Zm-2.035,5.035a.965.965,0,1,1-.965.965A.966.966,0,0,1,19.246,22.217Zm-8.023,0a.965.965,0,1,1-.965.965A.966.966,0,0,1,11.223,22.217ZM7.151,16.073h0L6.4,7.744H23.188l-2.179,6.45L21,14.221a2.615,2.615,0,0,1-2.466,1.852Z" transform="translate(0 -0.178)" fill="#fff"/>
    </g>
  </g>
</svg>
