<svg xmlns="http://www.w3.org/2000/svg" width="41.232" height="41.232" viewBox="0 0 41.232 41.232">
  <path id="Exclusion_2" data-name="Exclusion 2" d="M20.615,41.232A20.616,20.616,0,0,1,6.038,6.038,20.616,20.616,0,1,1,35.193,35.193,20.481,20.481,0,0,1,20.615,41.232ZM19.361,24.041a3.494,3.494,0,0,0-2.461.781,2.9,2.9,0,0,0-.836,2.219,2.806,2.806,0,0,0,.876,2.211,3.545,3.545,0,0,0,2.421.773,3.423,3.423,0,0,0,2.368-.781,2.827,2.827,0,0,0,.867-2.2,2.9,2.9,0,0,0-.836-2.21A3.375,3.375,0,0,0,19.361,24.041Zm.454-12.781a2.824,2.824,0,0,1,1.547.383,1.183,1.183,0,0,1,.593,1.039A2.186,2.186,0,0,1,21.4,14.15a8.392,8.392,0,0,1-1.82,1.438,6.572,6.572,0,0,0-2.219,2.055,5.013,5.013,0,0,0-.625,2.586v1.344h4.8v-.8a1.758,1.758,0,0,1,.414-1.164A10.918,10.918,0,0,1,24,18.057a9.048,9.048,0,0,0,2.82-2.617,5.983,5.983,0,0,0,.883-3.274A5.006,5.006,0,0,0,25.72,7.994a8.787,8.787,0,0,0-5.468-1.531,16.244,16.244,0,0,0-8.125,2.218l2.172,4.25A12.229,12.229,0,0,1,19.814,11.26Z" transform="translate(0 0)" fill="#8a8a8a"/>
</svg>
