<svg xmlns="http://www.w3.org/2000/svg" width="47.888" height="41.232" viewBox="0 0 47.888 41.232">
  <g id="Group_119" data-name="Group 119" transform="translate(0 0)">
    <path id="Path_798" data-name="Path 798" d="M311.673,64a3.125,3.125,0,0,0-2.178.887L299.7,74.515a.784.784,0,0,0-.22.4l-.8,3.957a.781.781,0,0,0,.22.715.812.812,0,0,0,.569.232.837.837,0,0,0,.157-.015l4.021-.791a.8.8,0,0,0,.412-.216l9.793-9.629h0a3.023,3.023,0,0,0,.9-2.141A3.057,3.057,0,0,0,311.673,64Z" transform="translate(-266.864 -55.518)" fill="#e32340"/>
    <path id="Subtraction_33" data-name="Subtraction 33" d="M20.615,41.232A20.617,20.617,0,0,1,6.037,6.038a20.643,20.643,0,0,1,33.036,5.373l-7.529,7.528a1.025,1.025,0,0,0-.281.524L30.237,24.6a1.019,1.019,0,0,0,.281.927,1.033,1.033,0,0,0,.725.3,1.085,1.085,0,0,0,.2-.02l5.128-1.026A1.021,1.021,0,0,0,37.1,24.5l4.132-4.131c0,.059,0,.118,0,.177v.074A20.615,20.615,0,0,1,20.615,41.232ZM8.366,21.512a1.2,1.2,0,0,0,0,2.39H22.109a1.2,1.2,0,1,0,0-2.39Zm0-5.378a1.2,1.2,0,1,0,0,2.39H29.28a1.2,1.2,0,0,0,0-2.39Z" transform="translate(0 0)" fill="#e32340"/>
  </g>
</svg>
