<svg xmlns="http://www.w3.org/2000/svg" width="41.232" height="41.232" viewBox="0 0 41.232 41.232">
  <path id="Exclusion_6" data-name="Exclusion 6" d="M-1847.384-2376.769a20.481,20.481,0,0,1-14.578-6.038,20.479,20.479,0,0,1-6.038-14.577,20.482,20.482,0,0,1,6.038-14.578,20.482,20.482,0,0,1,14.578-6.038,20.48,20.48,0,0,1,14.577,6.038,20.482,20.482,0,0,1,6.038,14.578,20.48,20.48,0,0,1-6.038,14.577A20.48,20.48,0,0,1-1847.384-2376.769Zm6.524-19.95a5.866,5.866,0,0,0-5.859,5.859,5.866,5.866,0,0,0,5.859,5.86,5.866,5.866,0,0,0,5.86-5.86A5.866,5.866,0,0,0-1840.86-2396.719Zm-15.917,0A3.227,3.227,0,0,0-1860-2393.5v5.273a3.227,3.227,0,0,0,3.223,3.223h5.273a3.227,3.227,0,0,0,3.223-3.223v-5.273a3.227,3.227,0,0,0-3.223-3.223ZM-1843.5-2410a3.227,3.227,0,0,0-3.223,3.223v5.273a3.227,3.227,0,0,0,3.223,3.223h5.273A3.227,3.227,0,0,0-1835-2401.5v-5.273a3.227,3.227,0,0,0-3.223-3.223Zm-13.281,0a3.227,3.227,0,0,0-3.223,3.223v5.273a3.227,3.227,0,0,0,3.223,3.223h5.273a3.227,3.227,0,0,0,3.223-3.223v-5.273A3.227,3.227,0,0,0-1851.5-2410Zm15.917,23.438a4.3,4.3,0,0,1-4.3-4.3,4.3,4.3,0,0,1,4.3-4.3,4.3,4.3,0,0,1,4.3,4.3A4.3,4.3,0,0,1-1840.86-2386.562Zm-10.644,0h-5.273a1.662,1.662,0,0,1-1.661-1.66v-5.273a1.662,1.662,0,0,1,1.661-1.66h5.273a1.662,1.662,0,0,1,1.661,1.66v5.273A1.662,1.662,0,0,1-1851.5-2386.562Zm13.281-13.281h-5.273a1.662,1.662,0,0,1-1.661-1.66v-5.273a1.662,1.662,0,0,1,1.661-1.66h5.273a1.662,1.662,0,0,1,1.661,1.66v5.273A1.662,1.662,0,0,1-1838.223-2399.844Zm-13.281,0h-5.273a1.662,1.662,0,0,1-1.661-1.66v-5.273a1.662,1.662,0,0,1,1.661-1.66h5.273a1.662,1.662,0,0,1,1.661,1.66v5.273A1.662,1.662,0,0,1-1851.5-2399.844Z" transform="translate(1868 2418)" fill="#e32340"/>
</svg>
