<svg xmlns="http://www.w3.org/2000/svg" width="49.5" height="57.237" viewBox="0 0 49.5 57.237">
  <path id="Union_16" data-name="Union 16" d="M-2795.056-1224.054a.85.85,0,0,0-1.062,0l-4.114,3.292-4.114-3.292a.85.85,0,0,0-1.062,0l-4.115,3.292-4.115-3.292a.85.85,0,0,0-1.062,0l-3.267,2.612v-25.213a.852.852,0,0,0,0-.337v-24.84a7.863,7.863,0,0,0-2.988-6.168h33.639a4.819,4.819,0,0,1,4.813,4.813v51.744l-3.265-2.612a.85.85,0,0,0-1.062,0l-4.115,3.292Zm6.112-5.429a.849.849,0,0,0,.85.848h1.619a.849.849,0,0,0,.848-.848.849.849,0,0,0-.848-.85h-1.619A.849.849,0,0,0-2788.943-1229.483Zm-7.688,0a.848.848,0,0,0,.849.848h4.646a.849.849,0,0,0,.85-.848.849.849,0,0,0-.85-.85h-4.646A.848.848,0,0,0-2796.632-1229.483Zm-9.31,0a.849.849,0,0,0,.85.848h6.3a.849.849,0,0,0,.848-.848.849.849,0,0,0-.848-.85h-6.3A.849.849,0,0,0-2805.942-1229.483Zm.626-14.258a.85.85,0,0,0,.849.85h17.992a.85.85,0,0,0,.848-.85.849.849,0,0,0-.848-.849h-17.992A.85.85,0,0,0-2805.316-1243.741Zm-5.879,0a.85.85,0,0,0,.85.85h2.51a.85.85,0,0,0,.849-.85.85.85,0,0,0-.849-.849h-2.51A.849.849,0,0,0-2811.195-1243.741Zm-3.647,0a.851.851,0,0,0,.85.85h.332a.85.85,0,0,0,.85-.85.85.85,0,0,0-.85-.849h-.332A.851.851,0,0,0-2814.842-1243.741Zm9.526-7.078a.85.85,0,0,0,.849.849h17.992a.85.85,0,0,0,.848-.849.849.849,0,0,0-.848-.85h-17.992A.85.85,0,0,0-2805.316-1250.82Zm-5.879,0a.85.85,0,0,0,.85.849h2.51a.85.85,0,0,0,.849-.849.85.85,0,0,0-.849-.85h-2.51A.849.849,0,0,0-2811.195-1250.82Zm-3.647,0a.851.851,0,0,0,.85.849h.332a.85.85,0,0,0,.85-.849.85.85,0,0,0-.85-.85h-.332A.851.851,0,0,0-2814.842-1250.82Zm9.526-7.079a.85.85,0,0,0,.849.85h17.992a.849.849,0,0,0,.848-.85.85.85,0,0,0-.848-.849h-17.992A.85.85,0,0,0-2805.316-1257.9Zm-5.879,0a.849.849,0,0,0,.85.85h2.51a.85.85,0,0,0,.849-.85.85.85,0,0,0-.849-.849h-2.51A.85.85,0,0,0-2811.195-1257.9Zm-3.647,0a.851.851,0,0,0,.85.85h.332a.85.85,0,0,0,.85-.85.85.85,0,0,0-.85-.849h-.332A.851.851,0,0,0-2814.842-1257.9Zm9.526-7.078a.849.849,0,0,0,.849.849h17.992a.849.849,0,0,0,.848-.849.849.849,0,0,0-.848-.85h-17.992A.85.85,0,0,0-2805.316-1264.976Zm-5.879,0a.849.849,0,0,0,.85.849h2.51a.849.849,0,0,0,.849-.849.85.85,0,0,0-.849-.85h-2.51A.849.849,0,0,0-2811.195-1264.976Zm-3.647,0a.85.85,0,0,0,.85.849h.332a.849.849,0,0,0,.85-.849.85.85,0,0,0-.85-.85h-.332A.851.851,0,0,0-2814.842-1264.976Zm-13.34,13.926a.846.846,0,0,0-.616-.263.842.842,0,0,0-.556.208l-2.647,2.294v-23.02a6.169,6.169,0,0,1,6.169-6.168,6.168,6.168,0,0,1,6.167,6.168v22.685l-1.6-1.869a.843.843,0,0,0-.61-.3.852.852,0,0,0-.633.244l-2.935,2.9Z" transform="translate(2832 1278)" fill="#e32340"/>
</svg>
