<svg id="Group_67" data-name="Group 67" xmlns="http://www.w3.org/2000/svg" width="60.342" height="74.923" viewBox="0 0 60.342 74.923">
  <path id="Path_397" data-name="Path 397" d="M35.067,13.3a6.61,6.61,0,0,0,7.3-5.869,6.6,6.6,0,1,0-7.3,5.869Z" transform="translate(-1.274 0)" fill="#d31b37"/>
  <path id="Path_398" data-name="Path 398" d="M26.434,30.223l5.729-13.935.327.71a.668.668,0,0,0,.5.382.5.5,0,0,0,.106.008.661.661,0,0,0,.482-.209l1.576-1.669a.683.683,0,0,0,.134-.714.659.659,0,0,0-.581-.426l-1.952-.1-1.036-2.9a.666.666,0,0,0-.6-.445.647.647,0,0,0-.631.391l-2.015,4.428a.686.686,0,0,0,.112.734.668.668,0,0,0,.494.222.647.647,0,0,0,.215-.036l1.9-1.026L23.918,29.53Z" transform="translate(-2.365 2.249)" fill="#d31b37"/>
  <path id="Path_399" data-name="Path 399" d="M53.439,24.878q-4.117.308-8.237.617c-1.126-2.868-2.374-6.722-3.431-8.657-.853-1.562-1.791-1.3-2.383-.269-2.174,3.789-7.959,15.556-7.959,15.556l-6.045-1.638,7.669-19.114a3.782,3.782,0,0,0-2.848-.086L8.361,16.407a3.025,3.025,0,0,0-2.238,3.629A2.987,2.987,0,0,0,9.712,22.3L24.09,18.932q-3.128,5.627-6.039,11.378S7.643,47.484,9.226,48.189s8.47-7.133,8.47-7.133V68.563a4.038,4.038,0,1,0,8.076,0s-1.474-19.4,4.2-31.17,7.887-15.049,7.887-15.049,2.132,5.1,2.994,7.258c.347.871.935,2.489,2.969,2.288,3.456-.341,6.156-.519,9.622-.779C57.373,30.811,57.4,24.582,53.439,24.878Z" transform="translate(-6.046 2.276)" fill="#d31b37"/>
  <path id="Path_400" data-name="Path 400" d="M42.173,20.311a.844.844,0,0,0,0,1.687H58.278a.844.844,0,0,0,0-1.687Z" transform="translate(1.221 4.183)" fill="#d31b37"/>
</svg>
