<svg xmlns="http://www.w3.org/2000/svg" width="90.892" height="71.934" viewBox="0 0 90.892 71.934">
  <g id="Group_127" data-name="Group 127" transform="translate(-67.413 -508.069)">
    <g id="table" transform="translate(71.886 433.258)">
      <g id="Group_9" data-name="Group 9" transform="translate(0 85.333)">
        <g id="Group_8" data-name="Group 8">
          <path id="Path_370" data-name="Path 370" d="M363.572,85.333a5.138,5.138,0,0,0-5.132,5.132V112.7H346.465a5.132,5.132,0,1,0,0,10.264h8.553v13.686h-5.132a1.711,1.711,0,0,0,0,3.422h13.686a1.711,1.711,0,0,0,0-3.422H358.44V122.969h5.132a5.138,5.138,0,0,0,5.132-5.132V90.465A5.138,5.138,0,0,0,363.572,85.333Z" transform="translate(-286.59 -85.333)" fill="#e32340"/>
          <path id="Path_371" data-name="Path 371" d="M22.239,112.7H10.264V90.465A5.132,5.132,0,0,0,0,90.465v27.371a5.138,5.138,0,0,0,5.132,5.132h5.132v13.686H5.132a1.711,1.711,0,1,0,0,3.422H18.818a1.711,1.711,0,0,0,0-3.422H13.686V122.969h8.553a5.132,5.132,0,0,0,0-10.264Z" transform="translate(0 -85.333)" fill="#e32340"/>
          <path id="Path_372" data-name="Path 372" d="M135.265,164.475a11.6,11.6,0,0,0,12.92,0,7.6,7.6,0,0,1,4.669-1.457,1.71,1.71,0,0,0,1.711-1.711v-5.132a6.85,6.85,0,0,0-6.843-6.843H113.509a6.85,6.85,0,0,0-6.843,6.843v5.132a1.71,1.71,0,0,0,1.711,1.711,7.562,7.562,0,0,1,4.656,1.457,11.576,11.576,0,0,0,12.9,0,8.355,8.355,0,0,1,2.969-1.3V190.39h-6.843a1.711,1.711,0,0,0,0,3.422h17.107a1.711,1.711,0,1,0,0-3.422h-6.843v-27.2A8.447,8.447,0,0,1,135.265,164.475Z" transform="translate(-89.559 -139.069)" fill="#e32340"/>
        </g>
      </g>
    </g>
    <rect id="Rectangle_565" data-name="Rectangle 565" width="3" height="113" transform="translate(67.413 510.433) rotate(-52)" fill="#e32340"/>
    <rect id="Rectangle_566" data-name="Rectangle 566" width="3" height="113" transform="matrix(-0.616, -0.788, 0.788, -0.616, 69.26, 580.003)" fill="#e32340"/>
  </g>
</svg>
