<svg xmlns="http://www.w3.org/2000/svg" width="55.756" height="62.721" viewBox="0 0 55.756 62.721">
  <path id="Path_768" data-name="Path 768" d="M211.036,595.224h1.834v8.631H216a.691.691,0,0,1,.794.794c0,.251-.251.5-.794.5h-8.09c-.541,0-.792-.248-.792-.5a.69.69,0,0,1,.792-.794h3.129Zm15.72,5.752h1.795v8.633h3.168c.5,0,.794.251.794.5a.707.707,0,0,1-.794.794h-8.131a.706.706,0,0,1-.791-.794c0-.251.292-.5.791-.5h3.168Zm14.638-52h9.926c.543,0,.792.248.792.5a.688.688,0,0,1-.792.792h-9.926a.841.841,0,0,1-.794-.792C240.6,549.224,241.143,548.975,241.394,548.975Zm.5,1.291h8.923v25.105a6.667,6.667,0,0,1,4.712,6.008V611.7H237.183V591.8l5-5.462h-5v-5.212c0-2.379,2.126-4.464,4.712-5.757ZM228.84,599.393l4.963-5.214,6.005-6.546H219.917l-1.042,1.042-1.042,1.335,3.918,4.169,4.715,5.214Zm-15.72-5.462,4.712-5.255,6.047-6.8h-24.1l6.005,6.8,4.712,5.255Z" transform="translate(-199.775 -548.975)" fill="#d31b37" fill-rule="evenodd"/>
</svg>
