<svg xmlns="http://www.w3.org/2000/svg" width="265.285" height="56" viewBox="0 0 265.285 56">
  <g id="Group_23" data-name="Group 23" transform="translate(-81 -141)">
    <text id="goorder" transform="translate(143.285 186)" fill="#c61833" font-size="42" font-family="SegoeUI-Bold, Segoe UI" font-weight="700"><tspan x="0" y="0">GOORDER</tspan></text>
    <g id="Group_7" data-name="Group 7" transform="translate(81 155.229)">
      <path id="Path_368" data-name="Path 368" d="M17.062,6.65a1.107,1.107,0,0,0-.445.876v3.828a1.112,1.112,0,0,0,.45.876,1.079,1.079,0,0,0,.952.179l2.995-.858v.084a.563.563,0,0,0,.569.535h2.236a.631.631,0,0,0,.638-.535v-.084l2.964.858a1.1,1.1,0,0,0,.961-.179,1.131,1.131,0,0,0,.47-.876V7.526a1.139,1.139,0,0,0-.475-.876,1.072,1.072,0,0,0-.95-.178l-2.971.858V7.246a.661.661,0,0,0-.638-.569H21.582a.593.593,0,0,0-.569.569V7.33L18.02,6.473A1.087,1.087,0,0,0,17.062,6.65Z" transform="translate(-0.498 -2.354)" fill="#c61833"/>
      <path id="Path_369" data-name="Path 369" d="M27.829,2.228H25.565L31.8,7.048,22.2,37.374,12.6,7.048l6.24-4.82H16.572C7.7,2.228,0,9.64,0,18.51V38.575a3.732,3.732,0,0,0,3.732,3.732H40.669A3.732,3.732,0,0,0,44.4,38.575V18.51C44.4,9.64,36.7,2.228,27.829,2.228Zm3.342,24.4a.628.628,0,0,1-.519-.977l2.213-3.293a1.347,1.347,0,0,1,2.237,0l2.212,3.292a.628.628,0,0,1-.52.977Z" transform="translate(0 -2.228)" fill="#c61833"/>
    </g>
  </g>
</svg>
