<svg xmlns="http://www.w3.org/2000/svg" width="272" height="58" viewBox="0 0 272 58">
  <g id="Group_12" data-name="Group 12" transform="translate(-81 -141)">
    <text id="goorder" transform="translate(141 188)" fill="#fff" font-size="44" font-family="SegoeUI-Bold, Segoe UI" font-weight="700"><tspan x="0" y="0">GOORDER</tspan></text>
    <g id="Group_7" data-name="Group 7" transform="translate(81 155)">
      <path id="Path_368" data-name="Path 368" d="M17.046,6.642a1.066,1.066,0,0,0-.429.844v3.687a1.071,1.071,0,0,0,.434.844,1.04,1.04,0,0,0,.917.173l2.885-.827v.081a.543.543,0,0,0,.549.516h2.154a.607.607,0,0,0,.615-.516v-.081l2.856.827a1.057,1.057,0,0,0,.926-.173,1.09,1.09,0,0,0,.452-.844V7.486a1.1,1.1,0,0,0-.458-.844,1.033,1.033,0,0,0-.915-.172L24.168,7.3v-.08a.637.637,0,0,0-.615-.549H21.4a.571.571,0,0,0-.549.549V7.3l-2.883-.826A1.048,1.048,0,0,0,17.046,6.642Z" transform="translate(-1.089 -2.503)" fill="#fff"/>
      <path id="Path_369" data-name="Path 369" d="M26.808,2.228H24.627l6.009,4.643-9.25,29.213L12.135,6.871l6.011-4.643H15.964C7.417,2.228,0,9.368,0,17.913V37.241a3.6,3.6,0,0,0,3.595,3.595H39.177a3.6,3.6,0,0,0,3.595-3.595V17.913C42.771,9.368,35.353,2.228,26.808,2.228Zm3.219,23.5a.6.6,0,0,1-.5-.941l2.131-3.172a1.3,1.3,0,0,1,2.155,0l2.131,3.172a.6.6,0,0,1-.5.941H30.027Z" transform="translate(0 -2.228)" fill="#fff"/>
    </g>
  </g>
</svg>
