<svg xmlns="http://www.w3.org/2000/svg" width="26.096" height="25.797" viewBox="0 0 26.096 25.797">
  <g id="money" transform="translate(0.3 0.3)">
    <g id="Group_1984" data-name="Group 1984" transform="translate(0 0)">
      <g id="Group_1983" data-name="Group 1983">
        <path id="Path_2128" data-name="Path 2128" d="M19.291,11.573a2.286,2.286,0,0,0-.221-.407h1.3a2.291,2.291,0,1,0,0-4.581H16.379A2.289,2.289,0,0,0,14.491,3H2.291a2.291,2.291,0,0,0,0,4.581H6.278a2.284,2.284,0,0,0,0,2.589H4.98a2.289,2.289,0,0,0-1.423,4.083,2.286,2.286,0,0,0,0,3.585,2.286,2.286,0,0,0,0,3.585A2.289,2.289,0,0,0,4.98,25.508h5.868a8.463,8.463,0,1,0,8.443-13.935Zm1.075-3.992a1.295,1.295,0,1,1,0,2.589H8.167a1.295,1.295,0,1,1,0-2.589Zm-18.076-1A1.295,1.295,0,0,1,2.291,4h12.2a1.295,1.295,0,1,1,0,2.589ZM4.98,11.167h12.2a1.294,1.294,0,0,1,.565.13c-.236-.02-.474-.03-.714-.03a8.439,8.439,0,0,0-5.99,2.49H4.98a1.295,1.295,0,1,1,0-2.589Zm0,3.585h5.209a8.441,8.441,0,0,0-1.28,2.589H4.98a1.295,1.295,0,1,1,0-2.589Zm0,3.585h3.7a8.472,8.472,0,0,0-.031,2.589H4.98a1.295,1.295,0,1,1,0-2.589Zm0,6.175a1.295,1.295,0,0,1,0-2.589H8.853a8.432,8.432,0,0,0,1.195,2.589ZM17.03,27.2A7.469,7.469,0,1,1,24.5,19.732,7.478,7.478,0,0,1,17.03,27.2Z" transform="translate(0 -3)" fill="#e32340" stroke="#e32340" stroke-width="0.6"/>
      </g>
    </g>
  </g>
</svg>
