<svg xmlns="http://www.w3.org/2000/svg" width="31.015" height="31.015" viewBox="0 0 31.015 31.015">
  <g id="right-arrow" transform="translate(0.5 0.5)">
    <path id="Path_853" data-name="Path 853" d="M15.008,30.015A15.008,15.008,0,1,1,30.015,15.008,15.008,15.008,0,0,1,15.008,30.015ZM15.008,1A14.007,14.007,0,1,0,29.015,15.008,14.007,14.007,0,0,0,15.008,1Z" fill="#e32340" stroke="#e32340" stroke-width="1"/>
    <path id="Path_854" data-name="Path 854" d="M168.759,113.7a.506.506,0,0,1-.525-.484.465.465,0,0,1,.154-.342l8.543-7.864-8.543-7.864a.457.457,0,0,1,.013-.684.558.558,0,0,1,.73,0l8.914,8.205a.457.457,0,0,1,0,.684l-8.914,8.205A.549.549,0,0,1,168.759,113.7Z" transform="translate(-157.957 -90.006)" fill="#e32340" stroke="#e32340" stroke-width="1"/>
  </g>
</svg>
