<svg xmlns="http://www.w3.org/2000/svg" width="19.216" height="22.374" viewBox="0 0 19.216 22.374">
  <g id="scale" transform="translate(0.108 0.1)">
    <g id="Group_1986" data-name="Group 1986" transform="translate(0 0)">
      <g id="Group_1985" data-name="Group 1985">
        <path id="Path_2129" data-name="Path 2129" d="M52.424,3.913A7.862,7.862,0,0,0,55.553,1a.661.661,0,0,0-.568-1H37.306a.661.661,0,0,0-.568,1,7.862,7.862,0,0,0,3.129,2.915A9.355,9.355,0,0,0,43.63,4.955v1.7H40.508a2.316,2.316,0,0,0-2.3,2.032L36.878,19.579a2.314,2.314,0,0,0,2.3,2.595H53.117a2.314,2.314,0,0,0,2.3-2.595L54.079,8.685a2.316,2.316,0,0,0-2.3-2.032H48.66v-1.7A9.358,9.358,0,0,0,52.424,3.913Zm-.642,4.061a.993.993,0,0,1,.985.872L54.1,19.74a.992.992,0,0,1-.985,1.113H39.174a.993.993,0,0,1-.985-1.113L39.523,8.845a.994.994,0,0,1,.985-.872H51.783ZM44.951,6.652V4.975h2.388V6.652Zm3.1-3H44.241a7.6,7.6,0,0,1-5.627-2.333H53.676A7.6,7.6,0,0,1,48.049,3.654Z" transform="translate(-36.645 0)" fill="#e32340" stroke="#e32340" stroke-width="0.2"/>
      </g>
    </g>
    <g id="Group_1988" data-name="Group 1988" transform="translate(4.087 9)">
      <g id="Group_1987" data-name="Group 1987" transform="translate(0)">
        <path id="Path_2130" data-name="Path 2130" d="M136.42,207.8a5.414,5.414,0,1,0,5.413,5.413A5.42,5.42,0,0,0,136.42,207.8Zm0,9.506a4.092,4.092,0,1,1,4.092-4.092A4.1,4.1,0,0,1,136.42,217.309Z" transform="translate(-131.007 -207.803)" fill="#e32340" stroke="#e32340" stroke-width="0.2"/>
      </g>
    </g>
    <g id="Group_1990" data-name="Group 1990" transform="translate(7.249 13.753)">
      <g id="Group_1989" data-name="Group 1989">
        <path id="Path_2131" data-name="Path 2131" d="M206.746,317.741a.66.66,0,0,0-.934,0l-1.59,1.591a.661.661,0,1,0,.934.934l1.591-1.59A.661.661,0,0,0,206.746,317.741Z" transform="translate(-204.028 -317.547)" fill="#e32340" stroke="#e32340" stroke-width="0.2"/>
      </g>
    </g>
  </g>
</svg>
