<svg xmlns="http://www.w3.org/2000/svg" width="23.5" height="23.5" viewBox="0 0 23.5 23.5">
  <g id="cancel_1_" data-name="cancel (1)" transform="translate(0.25 0.25)" opacity="0.3">
    <g id="Group_2064" data-name="Group 2064">
      <g id="Group_2063" data-name="Group 2063">
        <path id="Path_2217" data-name="Path 2217" d="M11.5,0A11.5,11.5,0,1,0,23,11.5,11.5,11.5,0,0,0,11.5,0Zm0,22.258A10.758,10.758,0,1,1,22.258,11.5,10.758,10.758,0,0,1,11.5,22.258Z" stroke="#000" stroke-width="0.5"/>
        <path id="Path_2218" data-name="Path 2218" d="M143.027,132.535a.371.371,0,0,0-.525,0l-4.722,4.722-4.722-4.722a.371.371,0,1,0-.534.515l.009.009,4.722,4.722-4.722,4.722a.371.371,0,0,0,.515.534l.009-.009,4.722-4.722,4.722,4.722a.371.371,0,0,0,.525-.525l-4.722-4.722,4.722-4.722A.371.371,0,0,0,143.027,132.535Z" transform="translate(-126.281 -126.281)" stroke="#000" stroke-width="0.5"/>
      </g>
    </g>
  </g>
</svg>
